<svg xmlns="http://www.w3.org/2000/svg" viewBox="0 0 100 100">
  <g fill="#C97150">
    <rect x="46.5" y="11" width="7" height="39" rx="3.5" transform="rotate(0 50 50)"/>
    <rect x="46.5" y="11" width="7" height="39" rx="3.5" transform="rotate(30 50 50)"/>
    <rect x="46.5" y="11" width="7" height="39" rx="3.5" transform="rotate(60 50 50)"/>
    <rect x="46.5" y="11" width="7" height="39" rx="3.5" transform="rotate(90 50 50)"/>
    <rect x="46.5" y="11" width="7" height="39" rx="3.5" transform="rotate(120 50 50)"/>
    <rect x="46.5" y="11" width="7" height="39" rx="3.5" transform="rotate(150 50 50)"/>
    <rect x="46.5" y="11" width="7" height="39" rx="3.5" transform="rotate(180 50 50)"/>
    <rect x="46.5" y="11" width="7" height="39" rx="3.5" transform="rotate(210 50 50)"/>
    <rect x="46.5" y="11" width="7" height="39" rx="3.5" transform="rotate(240 50 50)"/>
    <rect x="46.5" y="11" width="7" height="39" rx="3.5" transform="rotate(270 50 50)"/>
    <rect x="46.5" y="11" width="7" height="39" rx="3.5" transform="rotate(300 50 50)"/>
    <rect x="46.5" y="11" width="7" height="39" rx="3.5" transform="rotate(330 50 50)"/>
  </g>
</svg>
